<?xml version="1.0" ?><svg viewBox="0 0 64 64" xmlns="http://www.w3.org/2000/svg"><g id="virus-covid19-corona-rip-dead"><path d="M32,3h0A18,18,0,0,1,50,21V59a0,0,0,0,1,0,0H14a0,0,0,0,1,0,0V21A18,18,0,0,1,32,3Z" style="fill:#d1d3d4"/><path d="M43.276,6.981A17.957,17.957,0,0,1,44,12v2A36,36,0,0,1,14,49.493V59H50V21A17.954,17.954,0,0,0,43.276,6.981Z" style="fill:#bcbebf"/><circle cx="50" cy="7" r="1" style="fill:#9bc9ff"/><path d="M45.757,8.343a1,1,0,1,0,0,1.414A1,1,0,0,0,45.757,8.343Z" style="fill:#9bc9ff"/><circle cx="43" cy="14" r="1" style="fill:#9bc9ff"/><path d="M44.343,18.243a1,1,0,1,0,1.414,0A1,1,0,0,0,44.343,18.243Z" style="fill:#9bc9ff"/><circle cx="50" cy="21" r="1" style="fill:#9bc9ff"/><path d="M54.243,19.657a1,1,0,1,0,0-1.414A1,1,0,0,0,54.243,19.657Z" style="fill:#9bc9ff"/><circle cx="57" cy="14" r="1" style="fill:#9bc9ff"/><path d="M55.657,9.757a1,1,0,1,0-1.414,0A1,1,0,0,0,55.657,9.757Z" style="fill:#9bc9ff"/><circle cx="50" cy="14" r="11" style="fill:#006838"/><path d="M50,3a11.078,11.078,0,0,0-1.5.114,10.987,10.987,0,0,1,0,21.772A10.995,10.995,0,1,0,50,3Z" style="fill:#005e32"/><circle cx="50" cy="14" r="3" style="fill:#ab2300"/><path d="M46.142,13h-1.42a2,2,0,1,0,0,2h1.42a3.915,3.915,0,0,0,.425,1.019l-1.006,1.006a2,2,0,1,0,1.414,1.414l1.006-1.006A3.915,3.915,0,0,0,49,17.858v1.42a2,2,0,1,0,2,0v-1.42a3.915,3.915,0,0,0,1.019-.425l1.006,1.006a2,2,0,1,0,1.414-1.414l-1.006-1.006A3.915,3.915,0,0,0,53.858,15h1.42a2,2,0,1,0,0-2h-1.42a3.915,3.915,0,0,0-.425-1.019l1.006-1.006a2.016,2.016,0,0,0,.511.074,2,2,0,1,0-1.925-1.488l-1.006,1.006A3.915,3.915,0,0,0,51,10.142V8.722a2,2,0,1,0-2,0v1.42a3.915,3.915,0,0,0-1.019.425L46.975,9.561a1.993,1.993,0,1,0-1.925,1.488,2.016,2.016,0,0,0,.511-.074l1.006,1.006A3.915,3.915,0,0,0,46.142,13ZM50,12a2,2,0,1,1-2,2A2,2,0,0,1,50,12Z" style="fill:#ed1c24"/><path d="M24.81,31.92A4,4,0,0,0,24,24H21a1,1,0,0,0-1,1V37a1,1,0,0,0,2,0V32h.46l3.71,5.55A1,1,0,0,0,27,38a.939.939,0,0,0,.55-.17.99.99,0,0,0,.28-1.38ZM22,30V26h2a2,2,0,0,1,0,4Z" style="fill:#ab2300"/><path d="M32,38a1,1,0,0,0,1-1V25a1,1,0,0,0-2,0V37A1,1,0,0,0,32,38Z" style="fill:#ab2300"/><path d="M37,38a1,1,0,0,0,1-1V32h2a4,4,0,0,0,0-8H37a1,1,0,0,0-1,1V37A1,1,0,0,0,37,38Zm1-12h2a2,2,0,0,1,0,4H38Z" style="fill:#ab2300"/><path d="M21,44H43a1,1,0,0,0,0-2H21a1,1,0,0,0,0,2Z" style="fill:#6d6e71"/><path d="M40,46H24a1,1,0,0,0,0,2H40a1,1,0,0,0,0-2Z" style="fill:#6d6e71"/><path d="M60,47a1,1,0,0,0-1,1v3a1.993,1.993,0,0,1-1,1.722V48a1,1,0,0,0-2,0v4.722A1.993,1.993,0,0,1,55,51V48a1,1,0,0,0-2,0v3a4,4,0,0,0,3,3.858V60a1,1,0,0,0,2,0V54.858A4,4,0,0,0,61,51V48A1,1,0,0,0,60,47Z" style="fill:#5eac24"/><path d="M10,47a1,1,0,0,0-1,1v3a1.993,1.993,0,0,1-1,1.722V48a1,1,0,0,0-2,0v4.722A1.993,1.993,0,0,1,5,51V48a1,1,0,0,0-2,0v3a4,4,0,0,0,3,3.858V60a1,1,0,0,0,2,0V54.858A4,4,0,0,0,11,51V48A1,1,0,0,0,10,47Z" style="fill:#5eac24"/><path d="M14.412,56.278l-.412.17v0L3,61H61L50,56.448v0l-.412-.17A46,46,0,0,0,14.412,56.278Z" style="fill:#4e901e"/></g></svg>